<svg xmlns="http://www.w3.org/2000/svg" width="11.63" height="15.932" viewBox="0 0 11.63 15.932"><path id="Telefon" d="M-81-182.137c.249-.442.493-.887.748-1.325.416-.717.838-1.429,1.257-2.144a.581.581,0,0,1,.611-.335.966.966,0,0,1,.332.123c.442.254.878.517,1.317.775a.686.686,0,0,0,.9-.064,3.19,3.19,0,0,0,.764-.862c.606-1,1.2-2.015,1.772-3.042a4.88,4.88,0,0,0,.56-1.486.609.609,0,0,0-.346-.751q-.671-.392-1.34-.787a.608.608,0,0,1-.241-.924c.606-1.036,1.218-2.069,1.821-3.107a.622.622,0,0,1,.84-.278c.16.085.312.185.468.278.293.175.58.36.88.523a1.984,1.984,0,0,1,.815.885,4.335,4.335,0,0,1,.448,1.615.691.691,0,0,0,.023.1v1.038a.738.738,0,0,0-.024.085c-.068.419-.113.844-.206,1.257a13.672,13.672,0,0,1-1.235,3.257,20.112,20.112,0,0,1-2.652,4.016,9.761,9.761,0,0,1-2.436,2.1,4.537,4.537,0,0,1-2.643.7,1.6,1.6,0,0,1-.723-.2c-.415-.247-.829-.5-1.25-.731A.836.836,0,0,1-81-181.95Z" transform="translate(81 196.412)" fill="#0050aa"/></svg>